<svg height="2030" width="720" xmlns="http://www.w3.org/2000/svg">
<rect height="2030" fill="#555" width="720"></rect>
<text fill="#7f7" font-family="Courier New" font-size="12" xml:space="preserve">
<tspan x="10" y="26"></tspan>
<tspan x="10" y="42">&gt; npmdoc-to-markdown@0.0.1 test /home/travis/build/npmdoc/node-npmdoc-to-markdown</tspan>
<tspan x="10" y="58">&gt; (set -e; export PORT=$(utility2 shServerPortRandom); utility2 test test.js)</tspan>
<tspan x="10" y="74"></tspan>
<tspan x="10" y="90"></tspan>
<tspan x="10" y="106">[MODE_BUILD=npmTest] - 2017-04-08T08:19:35Z - npm-testing /home/travis/build/npmdoc/node-npmdoc-\</tspan>
<tspan x="10" y="122">to-markdown</tspan>
<tspan x="10" y="138"></tspan>
<tspan x="10" y="154"></tspan>
<tspan x="10" y="170">covering $ /home/travis/.nvm/versions/node/v6.10.2/bin/node /home/travis/build/npmdoc/node-npmdo\</tspan>
<tspan x="10" y="186">c-to-markdown/test.js</tspan>
<tspan x="10" y="202">merging file:///home/travis/build/npmdoc/node-npmdoc-to-markdown/tmp/build/test-report.json to t\</tspan>
<tspan x="10" y="218">est-report</tspan>
<tspan x="10" y="234">&gt; server listening on http-port 47320</tspan>
<tspan x="10" y="250">created apidoc file:///home/travis/build/npmdoc/node-npmdoc-to-markdown/tmp/build/apidoc.html</tspan>
<tspan x="10" y="266"></tspan>
<tspan x="10" y="282"></tspan>
<tspan x="10" y="298">browserTest - created electron entry-page /home/travis/build/npmdoc/node-npmdoc-to-markdown/tmp/\</tspan>
<tspan x="10" y="314">electron.15b4ca5a7f90.6eace55d8503c.html</tspan>
<tspan x="10" y="330"></tspan>
<tspan x="10" y="346">[node test-case 1 of 6 passed] - testCase_buildLib_default</tspan>
<tspan x="10" y="362">[node test-case 2 of 6 passed] - testCase_buildReadme_default</tspan>
<tspan x="10" y="378">[node test-case 3 of 6 passed] - testCase_buildTest_default</tspan>
<tspan x="10" y="394"></tspan>
<tspan x="10" y="410">browserTest - created electron entry-page /home/travis/build/npmdoc/node-npmdoc-to-markdown/tmp/\</tspan>
<tspan x="10" y="426">electron.15b4ca5a82c0.636d677c48fd4.html</tspan>
<tspan x="10" y="442"></tspan>
<tspan x="10" y="458">Xlib:  extension "RANDR" missing on display ":99.0".</tspan>
<tspan x="10" y="474">Xlib:  extension "RANDR" missing on display ":99.0".</tspan>
<tspan x="10" y="490">&gt; server listening on http-port 36663</tspan>
<tspan x="10" y="506">merging file:///home/travis/build/npmdoc/node-npmdoc-to-markdown/tmp/build/test-report.json to t\</tspan>
<tspan x="10" y="522">est-report</tspan>
<tspan x="10" y="538">Xlib:  extension "RANDR" missing on display ":99.0".</tspan>
<tspan x="10" y="554">[4750:0408/081937:WARNING:audio_manager.cc(314)] Multiple instances of AudioManager detected</tspan>
<tspan x="10" y="570">[4750:0408/081937:WARNING:audio_manager.cc(275)] Multiple instances of AudioManager detected</tspan>
<tspan x="10" y="586">merging file:///home/travis/build/npmdoc/node-npmdoc-to-markdown/tmp/build/test-report.json to t\</tspan>
<tspan x="10" y="602">est-report</tspan>
<tspan x="10" y="618">[4781:0408/081937:ERROR:sandbox_linux.cc(343)] InitializeSandbox() called with multiple threads \</tspan>
<tspan x="10" y="634">in process gpu-process. </tspan>
<tspan x="10" y="650">Xlib:  extension "RANDR" missing on display ":99.0".</tspan>
<tspan x="10" y="666">[4750:0408/081937:ERROR:browser_gpu_channel_host_factory.cc(131)] Failed to create channel.</tspan>
<tspan x="10" y="682">[4746:0408/081937:WARNING:audio_manager.cc(314)] Multiple instances of AudioManager detected</tspan>
<tspan x="10" y="698">[4746:0408/081937:WARNING:audio_manager.cc(275)] Multiple instances of AudioManager detected</tspan>
<tspan x="10" y="714">[4807:0408/081937:ERROR:sandbox_linux.cc(343)] InitializeSandbox() called with multiple threads \</tspan>
<tspan x="10" y="730">in process gpu-process. </tspan>
<tspan x="10" y="746">[4746:0408/081937:ERROR:browser_gpu_channel_host_factory.cc(131)] Failed to create channel.</tspan>
<tspan x="10" y="762"></tspan>
<tspan x="10" y="778">browserTest - opened url http://127.0.0.1:47320?modeTest=1</tspan>
<tspan x="10" y="794"></tspan>
<tspan x="10" y="810"></tspan>
<tspan x="10" y="826">browserTest - opened url /home/travis/build/npmdoc/node-npmdoc-to-markdown/tmp/build/apidoc.html</tspan>
<tspan x="10" y="842"></tspan>
<tspan x="10" y="858">[4750:0408/081939:INFO:CONSOLE(248)] "----------|-----------|-----------|-----------|-----------\</tspan>
<tspan x="10" y="874">|</tspan>
<tspan x="10" y="890">File      |   % Stmts |% Branches |   % Funcs |   % Lines |</tspan>
<tspan x="10" y="906">----------|-----------|-----------|-----------|-----------|</tspan>
<tspan x="10" y="922">----------|-----------|-----------|-----------|-----------|</tspan>
<tspan x="10" y="938">All files |       100 |       100 |       100 |       100 |</tspan>
<tspan x="10" y="954">----------|-----------|-----------|-----------|-----------|</tspan>
<tspan x="10" y="970">", source: file:///home/travis/build/npmdoc/node-npmdoc-to-markdown/tmp/electron.15b4ca5a82c0.63\</tspan>
<tspan x="10" y="986">6d677c48fd4.html (248)</tspan>
<tspan x="10" y="1002">[4750:0408/081939:INFO:CONSOLE(248)] "created coverage file:///tmp/build/coverage.html/index.htm\</tspan>
<tspan x="10" y="1018">l", source: file:///home/travis/build/npmdoc/node-npmdoc-to-markdown/tmp/electron.15b4ca5a82c0.6\</tspan>
<tspan x="10" y="1034">36d677c48fd4.html (248)</tspan>
<tspan x="10" y="1050">[node test-case 4 of 6 passed] - testCase_buildApp_default</tspan>
<tspan x="10" y="1066"></tspan>
<tspan x="10" y="1082">browserTest - created screenCapture file:///home/travis/build/npmdoc/node-npmdoc-to-markdown/tmp\</tspan>
<tspan x="10" y="1098">/build/screenCapture.npmTest.browser.%2F.png</tspan>
<tspan x="10" y="1114"></tspan>
<tspan x="10" y="1130">browserTest - created screenCapture file:///home/travis/build/npmdoc/node-npmdoc-to-markdown/tmp\</tspan>
<tspan x="10" y="1146">/build/screenCapture.npmTest.browser.%2F.html</tspan>
<tspan x="10" y="1162"></tspan>
<tspan x="10" y="1178">browserTest - exit-code 0 - http://127.0.0.1:47320?modeTest=1</tspan>
<tspan x="10" y="1194"></tspan>
<tspan x="10" y="1210"></tspan>
<tspan x="10" y="1226">browserTest - merged coverage from /home/travis/build/npmdoc/node-npmdoc-to-markdown/tmp/coverag\</tspan>
<tspan x="10" y="1242">e.npmTest.browser.%2F.json</tspan>
<tspan x="10" y="1258"></tspan>
<tspan x="10" y="1274"></tspan>
<tspan x="10" y="1290">browserTest - merging test-report from /home/travis/build/npmdoc/node-npmdoc-to-markdown/tmp/tes\</tspan>
<tspan x="10" y="1306">t-report.npmTest.browser.%2F.json</tspan>
<tspan x="10" y="1322"></tspan>
<tspan x="10" y="1338">[node test-case 5 of 6 passed] - testCase_webpage_default</tspan>
<tspan x="10" y="1354"></tspan>
<tspan x="10" y="1370">browserTest - created screenCapture file:///home/travis/build/npmdoc/node-npmdoc-to-markdown/tmp\</tspan>
<tspan x="10" y="1386">/build/screenCapture.npmTest.browser.%2Fhome%2Ftravis%2Fbuild%2Fnpmdoc%2Fnode-npmdoc-to-markdown\</tspan>
<tspan x="10" y="1402">%2Ftmp%2Fbuild%2Fapidoc.html.png</tspan>
<tspan x="10" y="1418"></tspan>
<tspan x="10" y="1434">browserTest - created screenCapture file:///home/travis/build/npmdoc/node-npmdoc-to-markdown/tmp\</tspan>
<tspan x="10" y="1450">/build/screenCapture.npmTest.browser.%2Fhome%2Ftravis%2Fbuild%2Fnpmdoc%2Fnode-npmdoc-to-markdown\</tspan>
<tspan x="10" y="1466">%2Ftmp%2Fbuild%2Fapidoc.html.html</tspan>
<tspan x="10" y="1482"></tspan>
<tspan x="10" y="1498">browserTest - exit-code 0 - /home/travis/build/npmdoc/node-npmdoc-to-markdown/tmp/build/apidoc.h\</tspan>
<tspan x="10" y="1514">tml</tspan>
<tspan x="10" y="1530"></tspan>
<tspan x="10" y="1546">[node test-case 6 of 6 passed] - testCase_buildApidoc_default</tspan>
<tspan x="10" y="1562">--------------------------------|-----------|-----------|-----------|-----------|</tspan>
<tspan x="10" y="1578">File                            |   % Stmts |% Branches |   % Funcs |   % Lines |</tspan>
<tspan x="10" y="1594">--------------------------------|-----------|-----------|-----------|-----------|</tspan>
<tspan x="10" y="1610">   node-npmdoc-to-markdown/     |       100 |       100 |       100 |       100 |</tspan>
<tspan x="10" y="1626">      example.js                |       100 |       100 |       100 |       100 |</tspan>
<tspan x="10" y="1642">      lib.npmdoc_to_markdown.js |       100 |       100 |       100 |       100 |</tspan>
<tspan x="10" y="1658">      test.js                   |       100 |       100 |       100 |       100 |</tspan>
<tspan x="10" y="1674">--------------------------------|-----------|-----------|-----------|-----------|</tspan>
<tspan x="10" y="1690">All files                       |       100 |       100 |       100 |       100 |</tspan>
<tspan x="10" y="1706">--------------------------------|-----------|-----------|-----------|-----------|</tspan>
<tspan x="10" y="1722"></tspan>
<tspan x="10" y="1738">created coverage file:///home/travis/build/npmdoc/node-npmdoc-to-markdown/tmp/build/coverage.htm\</tspan>
<tspan x="10" y="1754">l/index.html</tspan>
<tspan x="10" y="1770">merging file:///home/travis/build/npmdoc/node-npmdoc-to-markdown/tmp/build/test-report.json to t\</tspan>
<tspan x="10" y="1786">est-report</tspan>
<tspan x="10" y="1802"></tspan>
<tspan x="10" y="1818">-------------------------------------------------------</tspan>
<tspan x="10" y="1834">| test-report - buildNpmdoc - node - linux v6.10.2 - 2017-04-08T08:19:14.463Z</tspan>
<tspan x="10" y="1850">|   37480 ms            0 failed        6 passed      |</tspan>
<tspan x="10" y="1866">-------------------------------------------------------</tspan>
<tspan x="10" y="1882"></tspan>
<tspan x="10" y="1898">created test-report file:///home/travis/build/npmdoc/node-npmdoc-to-markdown/tmp/build/test-repo\</tspan>
<tspan x="10" y="1914">rt.html</tspan>
<tspan x="10" y="1930"></tspan>
<tspan x="10" y="1946"></tspan>
<tspan x="10" y="1962">npmTest - 0 failed tests</tspan>
<tspan x="10" y="1978"></tspan>
<tspan x="10" y="1994"></tspan>
<tspan x="10" y="2010">[MODE_BUILD=npmTest] - 2017-04-08T08:19:55Z - EXIT_CODE - 0</tspan>
</text>
</svg>
